<svg xmlns="http://www.w3.org/2000/svg" width="36.923" height="36" viewBox="0 0 36.923 36">
  <path id="github-brands" d="M12.35,36.987c0,.149-.171.268-.387.268-.246.022-.417-.1-.417-.268,0-.149.171-.268.387-.268C12.156,36.7,12.35,36.816,12.35,36.987Zm-2.315-.335c-.052.149.1.32.32.365a.349.349,0,0,0,.462-.149c.045-.149-.1-.32-.32-.387a.382.382,0,0,0-.462.171Zm3.29-.127c-.216.052-.365.194-.342.365.022.149.216.246.439.194s.365-.194.342-.342S13.541,36.5,13.325,36.526ZM18.223,8A17.85,17.85,0,0,0,0,26.163,18.663,18.663,0,0,0,12.618,43.97c.953.171,1.288-.417,1.288-.9,0-.462-.022-3.007-.022-4.571,0,0-5.211,1.117-6.305-2.218,0,0-.849-2.166-2.069-2.725,0,0-1.7-1.169.119-1.146A3.929,3.929,0,0,1,8.5,34.33a3.935,3.935,0,0,0,5.427,1.556,4.137,4.137,0,0,1,1.191-2.509c-4.161-.462-8.36-1.064-8.36-8.226a5.642,5.642,0,0,1,1.757-4.385,7.033,7.033,0,0,1,.194-5.055c1.556-.484,5.136,2.01,5.136,2.01a17.586,17.586,0,0,1,9.35,0s3.581-2.5,5.136-2.01a7.03,7.03,0,0,1,.194,5.055,5.786,5.786,0,0,1,1.921,4.385c0,7.184-4.385,7.757-8.546,8.226a4.4,4.4,0,0,1,1.265,3.454c0,2.509-.022,5.613-.022,6.223,0,.484.342,1.072,1.288.9A18.491,18.491,0,0,0,36.923,26.163C36.923,15.839,28.548,8,18.223,8ZM7.236,33.675c-.1.074-.074.246.052.387.119.119.29.171.387.074.1-.074.074-.246-.052-.387C7.5,33.63,7.332,33.578,7.236,33.675Zm-.8-.6c-.052.1.022.216.171.29a.222.222,0,0,0,.32-.052c.052-.1-.022-.216-.171-.29C6.6,32.975,6.484,33,6.432,33.072Zm2.412,2.65c-.119.1-.074.32.1.462.171.171.387.194.484.074.1-.1.052-.32-.1-.462C9.164,35.625,8.94,35.6,8.844,35.722Zm-.849-1.094c-.119.074-.119.268,0,.439s.32.246.417.171a.34.34,0,0,0,0-.462c-.1-.171-.3-.246-.417-.149Z" transform="translate(0 -8)" fill="#b5b8bd"/>
</svg>
