<svg xmlns="http://www.w3.org/2000/svg" width="38.114" height="30.955" viewBox="0 0 38.114 30.955">
  <path id="twitter-brands" d="M34.2,55.8c.024.339.024.677.024,1.016,0,10.326-7.86,22.225-22.225,22.225A22.074,22.074,0,0,1,0,75.531a16.159,16.159,0,0,0,1.886.1,15.644,15.644,0,0,0,9.7-3.337,7.825,7.825,0,0,1-7.3-5.417,9.85,9.85,0,0,0,1.475.121,8.262,8.262,0,0,0,2.056-.266,7.812,7.812,0,0,1-6.264-7.666v-.1a7.867,7.867,0,0,0,3.531.991A7.823,7.823,0,0,1,2.66,49.509a22.2,22.2,0,0,0,16.106,8.174,8.818,8.818,0,0,1-.193-1.79,7.819,7.819,0,0,1,13.519-5.345,15.379,15.379,0,0,0,4.958-1.886,7.79,7.79,0,0,1-3.434,4.3,15.659,15.659,0,0,0,4.5-1.209A16.791,16.791,0,0,1,34.2,55.8Z" transform="translate(0 -48.082)" fill="#b5b8bd"/>
</svg>
